# xmcd
#
# Track frame offsets: 
#        150
#        17721
#        34345
#        57005
#        84635
#        104550
#        123483
#        140821
#        164947
#        177078
#        199433
#        220860
#        247224
#
# Disc length: 3506 seconds
#
# Revision: 3
# Processed by: cddbd v1.5.2PL0 Copyright (c) Steve Scherf et al.
# Submitted via: ExactAudioCopyFreeDBPlugin 1.0
#
DISCID=cd0db00d
DTITLE=Womack and Womack - 1996 - Greatest Hits
DYEAR=1996
DGENRE=Blues
TTITLE0=Teardrops [Remix]
TTITLE1=Celebrate The World
TTITLE2=Slave [Just For Love]
TTITLE3=Conscious Of My Conscience
TTITLE4=Good Man Monologue
TTITLE5=MPB [Missing Person Bureau] [Remix]
TTITLE6=Life's Just A Ball Game [Radio Mix]
TTITLE7=Friends [So Called]
TTITLE8=I Am Love
TTITLE9=Love Wars [Live Version]
TTITLE10=Take Me Home Country Roads [Live Version]
TTITLE11=Family [Live Version]
TTITLE12=Rejoice [Live Version]
EXTD=
EXTT0=
EXTT1=
EXTT2=
EXTT3=
EXTT4=
EXTT5=
EXTT6=
EXTT7=
EXTT8=
EXTT9=
EXTT10=
EXTT11=
EXTT12=
PLAYORDER=
